<?xml version="1.0" encoding="UTF-8"?>
<svg width="390px" height="68px" viewBox="0 0 390 68" version="1.1" xmlns="http://www.w3.org/2000/svg">
    <!-- Generator: Sketch 50 (54983) - http://www.bohemiancoding.com/sketch -->
    <title>logo_lovcreate_white</title>
    <desc>Created with Sketch.</desc>
    <defs></defs>
    <g id="Page-1" stroke="none" stroke-width="1" fill="none" fill-rule="evenodd">
        <g id="logo" transform="translate(-95.000000, -166.000000)">
            <g id="logo_lovcreate_white_export" transform="translate(95.000000, 166.000000)">
                <g id="logo_lovcreate_white" transform="translate(2.000000, 2.000000)">
                    <path d="M71.3565083,54.1207233 C63.2863668,54.1207233 56.7381619,47.6111342 56.7381619,39.5778192 C56.7381619,31.549326 63.2863668,25.0445589 71.3565083,25.0445589 C79.4266498,25.0445589 85.9700077,31.549326 85.9700077,39.5778192 C85.9700077,47.6111342 79.4266498,54.1207233 71.3565083,54.1207233 Z M71.3565083,15.3332164 C57.8965786,15.3332164 46.9812882,26.1873534 46.9812882,39.5778192 C46.9812882,52.9731068 57.8965786,63.8320658 71.3565083,63.8320658 C84.816438,63.8320658 95.7268815,52.9731068 95.7268815,39.5778192 C95.7268815,26.1873534 84.816438,15.3332164 71.3565083,15.3332164 Z" id="Fill-1" fill="#FFFFFF"></path>
                    <path d="M99.0460604,15.7430795 C100.131773,15.0824767 100.131773,15.2512438 100.723099,15.0921205 C104.663654,14.0312986 106.946559,17.3005589 107.615436,19.3112986 L118.559808,52.4812712 L118.748838,52.4812712 L129.635047,18.3806685 C130.279689,16.3458192 132.184533,14.9571068 134.331724,14.9571068 L134.927897,14.9571068 C138.340137,14.9571068 140.729674,18.3228055 139.576104,21.5149151 L125.529696,60.5724493 C124.822044,62.525326 122.970516,63.8320658 120.881488,63.8320658 L115.651649,63.8320658 C113.577162,63.8320658 111.720787,62.5397918 111.013135,60.6013808 L97.369022,23.2749151 C96.2009114,20.0731616 96.8067779,17.0980384 99.0460604,15.7430795" id="Fill-3" fill="#F6AC19"></path>
                    <path d="M317.392584,3.58509589 L322.8163,3.58509589 C323.911707,3.58509589 324.793849,4.46750685 324.793849,5.55243836 L324.793849,12.9685479 C324.793849,14.0583014 325.680837,14.9358904 326.776244,14.9358904 L332.035165,14.9358904 C333.125724,14.9358904 334.007866,15.8134795 334.007866,16.9032329 L334.007866,20.5389589 C334.007866,21.6190685 333.125724,22.4966575 332.035165,22.4966575 L326.776244,22.4966575 C325.680837,22.4966575 324.793849,23.3790685 324.793849,24.464 L324.793849,49.5042192 C324.793849,50.569863 324.837471,51.4956712 324.93441,52.2623562 C325.016807,53.033863 325.230072,53.6896438 325.559664,54.2200548 C325.884408,54.7504658 326.373948,55.1506849 327.033131,55.4207123 C327.68262,55.6859178 328.588996,55.8643288 329.718331,55.965589 C330.595626,56.0523836 331.875216,56.1198904 331.88491,56.1198904 C333.571642,56.0813151 334.007866,57.5037808 334.007866,58.6513973 L334.007866,61.5349041 C334.007866,62.537863 333.275979,63.3865205 332.243583,63.6613699 C331.802512,63.772274 331.216033,63.830137 330.702258,63.830137 L327.391804,63.830137 C324.711451,63.830137 323.359157,63.5745753 321.725741,63.0730959 C320.087478,62.5667945 318.798194,61.8242192 317.882124,60.8453699 C316.951513,59.8665205 316.326259,58.6417534 316.001514,57.1517808 C315.671923,55.676274 315.478046,53.9789589 315.419882,52.0887671 L315.419882,5.55243836 C315.419882,4.46750685 316.302024,3.58509589 317.392584,3.58509589" id="Fill-5" fill="#FFFFFF"></path>
                    <path d="M4.3699718,0.276778082 C5.13094009,0.0260383562 6.13910191,-0.133084932 7.45262043,0.156230137 C9.0618018,0.517873973 11.2380742,2.35502466 11.2380742,5.95699726 L11.2380742,49.267463 C11.2380742,51.8182575 13.3174079,53.8868603 15.8814349,53.8868603 L39.8785943,53.8868603 C42.4426212,53.8868603 44.5268019,55.955463 44.5268019,58.5110795 L44.5268019,58.8775452 C44.5268019,61.4283397 42.4426212,63.4969425 39.8785943,63.4969425 L5.51869464,63.4969425 C2.9546677,63.4969425 0.875333955,61.4283397 0.875333955,58.8775452 L0.875333955,5.53266849 C0.875333955,2.98187397 2.72686191,0.821654795 4.3699718,0.276778082" id="Fill-7" fill="#FFFFFF"></path>
                    <path d="M285.698012,54.3753205 C279.852612,54.3753205 273.982978,51.0771288 271.520736,45.4788822 C269.819463,41.5875945 269.7613,36.9199781 271.472267,32.7875945 C272.267164,30.8491836 273.197775,29.0457863 274.773028,27.8547726 C287.030918,18.5918685 300.59748,27.1121973 300.946459,38.7330192 L300.946459,39.6395397 C300.704113,47.8223342 293.976571,54.3753205 285.698012,54.3753205 M309.806651,35.6132384 C308.82757,29.0313205 304.678597,22.5795945 298.644167,18.8136767 C290.937545,14.0014027 275.640628,13.1286356 268.084262,21.2342795 C255.840912,34.3981151 260.372793,50.4840329 270.498034,58.3582247 C274.710017,61.6323068 280.085265,63.4357041 285.698012,63.4357041 C290.181424,63.4357041 294.378867,62.2302247 297.984984,60.1278685 C299.298503,59.3660055 300.946459,58.8259507 300.946459,60.335211 L300.946459,61.8541151 C300.946459,62.9438685 301.833448,63.8311014 302.938548,63.8311014 L307.838796,63.8311014 C308.93905,63.8311014 309.830885,62.9438685 309.830885,61.8541151 L309.830885,35.9363068 C309.830885,35.8302247 309.821192,35.7241425 309.806651,35.6132384" id="Fill-10" fill="#FFFFFF"></path>
                    <path d="M241.185729,41.6989808 L224.497743,41.6989808 C222.340858,41.6989808 220.600809,40.160789 220.600809,38.2609534 C220.600809,36.3611178 222.340858,34.8181041 224.497743,34.8181041 L241.185729,34.8181041 C243.342613,34.8181041 245.087509,36.3611178 245.087509,38.2609534 C245.087509,40.160789 243.342613,41.6989808 241.185729,41.6989808" id="Fill-12" fill="#FFFFFF"></path>
                    <path d="M176.535413,47.7355397 C173.588479,52.0559781 168.368333,54.7176767 162.57625,54.0040329 C155.974729,53.1891288 150.657644,47.8271562 149.925758,41.2452384 C148.951524,32.4693479 155.829321,25.0435945 164.447165,25.0435945 C169.52675,25.0435945 173.995621,27.6281425 176.612964,31.5483616 C177.853779,33.4048 180.180306,34.2293479 182.288722,33.4578411 C185.269585,32.3777315 186.510399,28.7998685 184.750963,26.1767452 C180.243316,19.4164164 172.405828,15.0381151 163.569871,15.3467178 C151.166572,15.7806904 140.891077,25.7041973 140.120415,38.0290192 C139.24312,52.1234849 150.468614,63.8311014 164.447165,63.8311014 C172.977765,63.8311014 180.480816,59.4672658 184.833361,52.8612384 C186.534634,50.2863342 185.318054,46.8000877 182.405048,45.7392658 C180.223929,44.9484712 177.839238,45.8212384 176.535413,47.7355397" id="Fill-14" fill="#FFFFFF"></path>
                    <path d="M244.617357,49.797874 C242.014554,52.7151342 238.316345,54.6969425 234.051045,55.0344767 C226.019679,55.6709699 218.628108,49.9811068 217.237039,42.0828055 C215.666633,33.1670795 221.914328,24.8492712 230.842376,23.7354082 C238.355121,22.7951342 245.286233,27.269874 247.709699,34.0977096 C248.233168,35.5780384 249.711482,36.5086685 251.281888,36.3109699 C254.54872,35.9059288 257.224226,33.7119562 255.212749,29.4831342 C250.617858,19.8296548 240.356903,13.5756274 229.150797,15.2536548 C217.275814,17.0281205 207.678889,28.7550247 208.362307,40.6748055 C209.171744,54.9187507 221.880399,65.2714082 235.868645,63.5210521 C242.295676,62.7206137 247.830872,59.5043945 251.659948,54.9042849 C253.482395,52.7151342 252.556631,49.4024767 249.852043,48.4959562 C248.005362,47.8835726 245.911487,48.3464767 244.617357,49.797874" id="Fill-16" fill="#FFFFFF"></path>
                    <path d="M371.139726,41.6989808 L354.446893,41.6989808 C352.290008,41.6989808 350.545113,40.160789 350.545113,38.2609534 C350.545113,36.3611178 352.290008,34.8181041 354.446893,34.8181041 L371.139726,34.8181041 C373.286917,34.8181041 375.036659,36.3611178 375.036659,38.2609534 C375.036659,40.160789 373.286917,41.6989808 371.139726,41.6989808" id="Fill-18" fill="#FFFFFF"></path>
                    <path d="M374.566507,49.797874 C371.963704,52.7151342 368.265495,54.6969425 363.995348,55.0344767 C355.963982,55.6709699 348.577258,49.9811068 347.186189,42.0828055 C345.610936,33.1670795 351.858631,24.8492712 360.78668,23.7354082 C368.304271,22.7951342 375.235383,27.269874 377.654002,34.0977096 C378.182318,35.5780384 379.660632,36.5086685 381.226191,36.3109699 C384.49787,35.9059288 387.168529,33.7119562 385.157053,29.4831342 C380.567008,19.8296548 370.301207,13.5756274 359.099947,15.2536548 C347.224964,17.0281205 337.618345,28.7550247 338.30661,40.6748055 C339.116047,54.9187507 351.82955,65.2714082 365.812948,63.5210521 C372.244826,62.7206137 377.775176,59.5043945 381.609099,54.9042849 C383.426698,52.7151342 382.505781,49.4024767 379.801193,48.4959562 C377.949665,47.8835726 375.865484,48.3464767 374.566507,49.797874" id="Fill-20" fill="#FFFFFF"></path>
                    <path d="M195.674978,19.3315507 C191.9283,24.3704548 191.75381,30.8318247 191.75381,34.6604274 C191.75381,35.7164274 191.6908,50.5148932 191.734422,59.1123726 C191.744116,61.5715507 193.750746,63.548537 196.222681,63.548537 L196.528038,63.548537 C198.999973,63.548537 201.016297,61.552263 201.016297,59.0834411 L201.016297,35.9334137 C201.016297,35.1763726 201.050225,31.7238795 201.258643,29.992811 C201.404051,28.8066192 202.068081,26.762126 203.071396,25.0310575 C204.302516,22.8997699 207.007104,20.2236055 207.273686,20.0114411 C209.672917,18.0874959 210.438732,16.4432219 209.149448,14.5433863 L207.903787,12.9184 C206.764758,11.3560986 205.179811,11.3512767 203.134406,12.7882082 C200.929052,14.3312219 197.991811,16.2165918 195.674978,19.3315507" id="Fill-23" fill="#FFFFFF"></path>
                    <path d="M209.979243,15.7618849 C209.979243,17.989611 208.16649,19.7930082 205.922361,19.7930082 C203.683079,19.7930082 201.865479,17.989611 201.865479,15.7618849 C201.865479,13.529337 203.683079,11.7259397 205.922361,11.7259397 C208.16649,11.7259397 209.979243,13.529337 209.979243,15.7618849" id="Fill-25" fill="#FFFFFF"></path>
                </g>
            </g>
        </g>
    </g>
</svg>